<svg width="110" height="110" viewBox="0 0 110 110" fill="none" xmlns="http://www.w3.org/2000/svg">
<path d="M48.3083 66.5958L38.5458 56.8333L33.6875 61.6917L48.2625 76.2667L75.7625 48.7667L70.9042 43.9083L48.3083 66.5958ZM55 91.6667C46.491 91.6667 38.3305 88.2865 32.3137 82.2697C26.2969 76.2529 22.9167 68.0924 22.9167 59.5833C22.9167 51.0743 26.2969 42.9138 32.3137 36.897C38.3305 30.8802 46.491 27.5 55 27.5C63.509 27.5 71.6696 30.8802 77.6863 36.897C83.7031 42.9138 87.0833 51.0743 87.0833 59.5833C87.0833 68.0924 83.7031 76.2529 77.6863 82.2697C71.6696 88.2865 63.509 91.6667 55 91.6667ZM55 18.3333C44.0598 18.3333 33.5677 22.6793 25.8319 30.4152C18.096 38.1511 13.75 48.6432 13.75 59.5833C13.75 70.5235 18.096 81.0156 25.8319 88.7515C33.5677 96.4874 44.0598 100.833 55 100.833C65.9402 100.833 76.4323 96.4874 84.1682 88.7515C91.904 81.0156 96.25 70.5235 96.25 59.5833C96.25 48.6432 91.904 38.1511 84.1682 30.4152C76.4323 22.6793 65.9402 18.3333 55 18.3333ZM36.1167 15.5375L30.25 8.525L9.16667 26.1708L15.0792 33.1833L36.1167 15.5375ZM100.833 26.2167L79.75 8.525L73.8375 15.5375L94.9208 33.2292L100.833 26.2167Z" fill="#2F2D2D"/>
</svg>
