<svg width="50" height="50" viewBox="0 0 50 50" fill="none" xmlns="http://www.w3.org/2000/svg">
<path d="M25.0057 33.75C22.6199 33.75 20.3319 32.8281 18.6449 31.1872C16.9579 29.5462 16.0102 27.3206 16.0102 25C16.0102 22.6794 16.9579 20.4538 18.6449 18.8128C20.3319 17.1719 22.6199 16.25 25.0057 16.25C27.3914 16.25 29.6795 17.1719 31.3664 18.8128C33.0534 20.4538 34.0011 22.6794 34.0011 25C34.0011 27.3206 33.0534 29.5462 31.3664 31.1872C29.6795 32.8281 27.3914 33.75 25.0057 33.75ZM44.1018 27.425C44.2046 26.625 44.2817 25.825 44.2817 25C44.2817 24.175 44.2046 23.35 44.1018 22.5L49.5247 18.425C50.0131 18.05 50.1416 17.375 49.8332 16.825L44.6929 8.175C44.3845 7.625 43.6905 7.4 43.1251 7.625L36.7255 10.125C35.389 9.15 34.0011 8.3 32.382 7.675L31.431 1.05C31.3282 0.45 30.7885 0 30.1459 0H19.8654C19.2229 0 18.6831 0.45 18.5803 1.05L17.6294 7.675C16.0102 8.3 14.6223 9.15 13.2859 10.125L6.88624 7.625C6.32081 7.4 5.62687 7.625 5.31846 8.175L0.178191 16.825C-0.155926 17.375 -0.00171763 18.05 0.486608 18.425L5.90959 22.5C5.80678 23.35 5.72968 24.175 5.72968 25C5.72968 25.825 5.80678 26.625 5.90959 27.425L0.486608 31.575C-0.00171763 31.95 -0.155926 32.625 0.178191 33.175L5.31846 41.825C5.62687 42.375 6.32081 42.575 6.88624 42.375L13.2859 39.85C14.6223 40.85 16.0102 41.7 17.6294 42.325L18.5803 48.95C18.6831 49.55 19.2229 50 19.8654 50H30.1459C30.7885 50 31.3282 49.55 31.431 48.95L32.382 42.325C34.0011 41.675 35.389 40.85 36.7255 39.85L43.1251 42.375C43.6905 42.575 44.3845 42.375 44.6929 41.825L49.8332 33.175C50.1416 32.625 50.0131 31.95 49.5247 31.575L44.1018 27.425Z" fill="#DAA520"/>
</svg>
