<svg width="55" height="49" viewBox="0 0 55 49" fill="none" xmlns="http://www.w3.org/2000/svg">
<path d="M27.6106 0C12.5201 0 0.221106 10.6818 0.221106 23.788C0.221106 27.9887 1.49246 32.0694 3.86935 35.67L0 48.0081L14.51 44.6955C18.5176 46.5918 23.0226 47.6 27.6106 47.6C42.701 47.6 55 36.9182 55 23.812C55 17.4509 52.1533 11.4739 46.9849 6.98517C41.8166 2.47241 34.9347 0 27.6106 0ZM27.6382 4.00867C33.7186 4.00867 39.4121 6.07302 43.7236 9.81765C48.0075 13.5623 50.3844 18.5311 50.3844 23.812C50.3844 34.7098 40.1583 43.5673 27.6106 43.5673C23.5201 43.5673 19.5126 42.6312 16.0302 40.8068L15.201 40.3988L6.57789 42.3671L8.87186 35.0699L8.3191 34.3018C6.05276 31.2052 4.83668 27.5326 4.83668 23.788C4.86432 12.8902 15.0628 4.00867 27.6382 4.00867ZM17.9095 12.7941C17.4673 12.7941 16.7211 12.9382 16.0854 13.5383C15.4774 14.1384 13.6809 15.6026 13.6809 18.5071C13.6809 21.4356 16.1407 24.2441 16.4447 24.6521C16.8317 25.0602 21.309 31.0612 28.191 33.6056C29.8216 34.2537 31.093 34.6138 32.0879 34.8779C33.7186 35.3339 35.2111 35.2619 36.3995 35.1179C37.7261 34.9499 40.4347 33.6777 41.0151 32.2854C41.5955 30.8932 41.5955 29.717 41.4296 29.4529C41.2362 29.2129 40.794 29.0689 40.103 28.8048C39.4121 28.4688 36.0402 27.0285 35.4322 26.8365C34.7965 26.6445 34.4095 26.5485 33.8844 27.1246C33.4422 27.7247 32.1156 29.0689 31.7286 29.4529C31.3141 29.861 30.9271 29.909 30.2638 29.621C29.5452 29.3089 27.3342 28.6848 24.7362 26.6685C22.691 25.0842 21.3367 23.1399 20.9221 22.5398C20.5905 21.9637 20.8945 21.6036 21.2261 21.3396C21.5301 21.0755 21.9724 20.6435 22.2487 20.2834C22.608 19.9473 22.7186 19.6833 22.9397 19.2992C23.1608 18.8912 23.0502 18.5551 22.8844 18.2671C22.7186 18.003 21.3367 15.0265 20.7563 13.8503C20.2035 12.6981 19.6508 12.8422 19.2085 12.8182C18.8216 12.8182 18.3794 12.7941 17.9095 12.7941Z" fill="#177B21"/>
</svg>
