<svg width="90" height="90" viewBox="0 0 110 90" fill="none" xmlns="http://www.w3.org/2000/svg">
<path d="M65.4762 25H57.619V50L80.0381 62.7L83.8095 56.65L65.4762 46.25V25ZM62.8571 0C50.3541 0 38.3631 4.74106 29.5221 13.1802C20.6811 21.6193 15.7143 33.0653 15.7143 45H0L20.7429 65.15L41.9048 45H26.1905C26.1905 35.7174 30.0536 26.815 36.9299 20.2513C43.8062 13.6875 53.1325 10 62.8571 10C72.5817 10 81.9081 13.6875 88.7844 20.2513C95.6607 26.815 99.5238 35.7174 99.5238 45C99.5238 54.2826 95.6607 63.185 88.7844 69.7487C81.9081 76.3125 72.5817 80 62.8571 80C52.7476 80 43.581 76.05 36.981 69.7L29.5429 76.8C38.081 85 49.7619 90 62.8571 90C75.3602 90 87.3512 85.2589 96.1922 76.8198C105.033 68.3807 110 56.9347 110 45C110 33.0653 105.033 21.6193 96.1922 13.1802C87.3512 4.74106 75.3602 0 62.8571 0Z" fill="#2F2D2D"/>
</svg>
